# xmcd
#
# Track frame offsets: 
#        150
#        19280
#        35021
#        49655
#        63118
#        84182
#        98917
#        119775
#        132143
#        147811
#        172191
#        187863
#        200634
#
# Disc length: 2894 seconds
#
# Revision: 0
# Processed by: cddbd v1.5.2PL0 Copyright (c) Steve Scherf et al.
# Submitted via: ExactAudioCopy v1.0b4
#
DISCID=b50b4c0d
DTITLE=Tip Of The Top - Rock Tonight
DYEAR=2010
DGENRE=Blues
TTITLE0=She Told Me
TTITLE1=Fannie Mae
TTITLE2=Time Will Tell
TTITLE3=She's Sweet
TTITLE4=Rock Me Baby
TTITLE5=Barstool Boogie
TTITLE6=Honey Do Woman
TTITLE7=Second Line Beat
TTITLE8=Steve's Shuffle
TTITLE9=Hate To See You Go
TTITLE10=Wishy Washy Woman
TTITLE11=Rock Tonight
TTITLE12=What Have I Done
EXTD=
EXTT0=
EXTT1=
EXTT2=
EXTT3=
EXTT4=
EXTT5=
EXTT6=
EXTT7=
EXTT8=
EXTT9=
EXTT10=
EXTT11=
EXTT12=
PLAYORDER=
